<svg width="32" height="33" viewBox="0 0 32 33" fill="none" xmlns="http://www.w3.org/2000/svg">
<g clip-path="url(#clip0)">
<path d="M16 0.5C9.27981 0.5 3.8125 5.96731 3.8125 12.6875C3.8125 17.0257 5.13219 18.7655 11.4738 27.1256C12.5746 28.5768 13.8224 30.2216 15.25 32.125C15.4271 32.3611 15.7049 32.5 16.0001 32.5C16.2952 32.5 16.573 32.361 16.7501 32.1249C18.1693 30.2317 19.4116 28.5932 20.5077 27.1475C26.8646 18.7631 28.1875 17.0182 28.1875 12.6875C28.1875 5.96731 22.7202 0.5 16 0.5ZM19.0137 26.0147C18.1134 27.2021 17.1147 28.5193 15.9998 30.0015C14.8772 28.5098 13.8729 27.1857 12.9676 25.9924C6.799 17.8604 5.6875 16.3951 5.6875 12.6875C5.6875 7.00119 10.3137 2.375 16 2.375C21.6863 2.375 26.3125 7.00119 26.3125 12.6875C26.3125 16.3878 25.1981 17.8576 19.0137 26.0147Z" fill="#155DA0"/>
<path d="M16 6.125C12.3814 6.125 9.4375 9.06894 9.4375 12.6875C9.4375 16.3061 12.3814 19.25 16 19.25C19.6186 19.25 22.5625 16.3061 22.5625 12.6875C22.5625 9.06894 19.6186 6.125 16 6.125ZM16 17.375C13.4153 17.375 11.3125 15.2722 11.3125 12.6875C11.3125 10.1028 13.4153 8 16 8C18.5847 8 20.6875 10.1028 20.6875 12.6875C20.6875 15.2722 18.5847 17.375 16 17.375Z" fill="#155DA0"/>
</g>
<defs>
<clipPath id="clip0">
<rect width="32" height="32" fill="white" transform="translate(0 0.5)"/>
</clipPath>
</defs>
</svg>
