<svg width="32" height="33" viewBox="0 0 32 33" fill="none" xmlns="http://www.w3.org/2000/svg">
<g clip-path="url(#clip0)">
<path d="M27.3149 5.18952C24.2938 2.16827 20.2768 0.504395 16.0042 0.504395C11.7317 0.504395 7.71475 2.16827 4.6935 5.18952C1.70506 8.17796 0.04575 12.1409 0.010125 16.3617C0.0041875 16.4045 0 16.4478 0 16.4923C0 16.5362 0.0040625 16.5791 0.0099375 16.6215C0.041125 20.8487 1.70094 24.8183 4.6935 27.8109C7.71475 30.8321 11.7316 32.496 16.0042 32.496C20.2767 32.496 24.2937 30.8321 27.3149 27.8109C30.3362 24.7897 32 20.7728 32 16.5002C32 12.2276 30.3362 8.21064 27.3149 5.18952ZM26.6216 25.8088L25.5414 24.7684C25.1683 24.409 24.5748 24.4203 24.2156 24.7933C23.8564 25.1663 23.8676 25.7598 24.2405 26.1191L25.2942 27.134C22.955 29.1834 20.0456 30.3869 16.9419 30.5891V27.209C16.9419 26.6911 16.5222 26.2713 16.0042 26.2713C15.4864 26.2713 15.0666 26.6911 15.0666 27.209V30.5891C12.3122 30.4096 9.711 29.4416 7.52537 27.7936L8.51262 26.7686C8.87187 26.3956 8.86075 25.8021 8.48775 25.4428C8.11475 25.0836 7.52119 25.0948 7.16194 25.4677L6.10356 26.5666C6.07575 26.5392 6.04738 26.5125 6.01975 26.4848C3.57306 24.0382 2.13575 20.8518 1.91488 17.43H5.28687C5.80475 17.43 6.22456 17.0102 6.22456 16.4923C6.22456 15.9745 5.80475 15.5546 5.28687 15.5546H1.91569C2.10781 12.6305 3.18875 9.87908 5.02869 7.61496L6.11363 8.65996C6.29556 8.83521 6.52987 8.92227 6.764 8.92227C7.00987 8.92227 7.2555 8.82615 7.4395 8.63508C7.79875 8.26208 7.78763 7.66852 7.41463 7.30927L6.30394 6.23952C8.70875 3.96289 11.7787 2.62533 15.0664 2.41127V5.79133C15.0664 6.30921 15.4863 6.72902 16.0041 6.72902C16.5221 6.72902 16.9418 6.30921 16.9418 5.79133V2.41121C20.2243 2.62502 23.2895 3.95864 25.6926 6.22852L24.6211 7.34102C24.2618 7.71396 24.273 8.30758 24.6459 8.66683C24.8278 8.84208 25.0622 8.92914 25.2962 8.92914C25.5422 8.92914 25.7877 8.83302 25.9718 8.64196L26.9712 7.60433C28.8163 9.87039 29.9002 12.6258 30.0927 15.5546H26.7046C26.1867 15.5546 25.7669 15.9744 25.7669 16.4923C25.7669 17.0101 26.1867 17.43 26.7046 17.43H30.0937C29.8926 20.5449 28.6828 23.4645 26.6216 25.8088Z" fill="#155DA0"/>
<path d="M21.9672 20.1167L16.9419 16.0447V9.19111C16.9419 8.67323 16.5222 8.25342 16.0042 8.25342C15.4863 8.25342 15.0665 8.67323 15.0665 9.19111V16.4999C15.0666 16.831 15.2387 17.1214 15.4977 17.2882L20.7865 21.5738C20.9602 21.7145 21.1689 21.783 21.3763 21.783C21.6494 21.783 21.9202 21.6643 22.1054 21.4356C22.4315 21.0332 22.3696 20.4427 21.9672 20.1167Z" fill="#155DA0"/>
</g>
<defs>
<clipPath id="clip0">
<rect width="32" height="32" fill="white" transform="translate(0 0.5)"/>
</clipPath>
</defs>
</svg>
