<svg width="20" height="20" viewBox="0 0 20 20" fill="none" xmlns="http://www.w3.org/2000/svg">
<g clip-path="url(#clip0)">
<path d="M11.8323 10.0163L19.6199 2.22851C20.1267 1.72194 20.1267 0.902894 19.6199 0.396328C19.1134 -0.110238 18.2943 -0.110238 17.7878 0.396328L9.9999 8.18416L2.21229 0.396328C1.70548 -0.110238 0.886671 -0.110238 0.380104 0.396328C-0.126701 0.902894 -0.126701 1.72194 0.380104 2.22851L8.16772 10.0163L0.380104 17.8042C-0.126701 18.3107 -0.126701 19.1298 0.380104 19.6363C0.632557 19.889 0.964495 20.016 1.2962 20.016C1.6279 20.016 1.9596 19.889 2.21229 19.6363L9.9999 11.8485L17.7878 19.6363C18.0404 19.889 18.3721 20.016 18.7038 20.016C19.0355 20.016 19.3672 19.889 19.6199 19.6363C20.1267 19.1298 20.1267 18.3107 19.6199 17.8042L11.8323 10.0163Z" fill="#155DA0"/>
</g>
<defs>
<clipPath id="clip0">
<rect width="20" height="20" fill="white"/>
</clipPath>
</defs>
</svg>
