<svg width="55" height="65" viewBox="0 0 55 65" fill="none" xmlns="http://www.w3.org/2000/svg">
<path d="M51.6867 53.2172V50.165C53.4594 48.8879 54.5114 46.8265 54.5114 44.6088C54.5114 42.4629 53.5005 40.419 51.8092 39.1429C51.4258 38.852 50.9202 38.8042 50.4888 39.0183C50.0531 39.2345 49.7824 39.6721 49.7824 40.1604V43.3456C49.7824 43.3822 49.7597 43.3977 49.7507 43.3977H47.1266C47.1158 43.3977 47.0948 43.3792 47.0948 43.3456V40.1604C47.0948 39.6729 46.8249 39.2355 46.3905 39.019C45.96 38.8046 45.4543 38.8515 45.0699 39.1416C43.5238 40.3093 42.5493 42.1153 42.3912 44.0531L31.8453 40.5045C31.228 40.297 30.8131 39.7198 30.8131 39.0686C34.5392 36.9685 37.1463 33.1065 37.4951 28.6209C39.2543 28.5896 40.7345 27.0739 40.7345 25.3081C40.7345 24.337 40.3026 23.4316 39.5966 22.8128C39.8525 22.3025 39.9975 21.7274 39.9975 21.1187C39.9975 19.3562 38.7889 17.8707 37.1569 17.4472V13.2577C37.1569 8.65008 34.0541 4.65753 29.6743 3.47737C29.6077 1.5487 28.019 0 26.0744 0H22.666C20.7213 0 19.1326 1.5487 19.066 3.47737C14.6862 4.65753 11.5834 8.65021 11.5834 13.2577V17.4472C9.95139 17.8706 8.74279 19.356 8.74279 21.1187C8.74279 21.7274 8.88777 22.3025 9.14371 22.8128C8.43773 23.4316 8.00583 24.337 8.00583 25.3081C8.00583 27.0763 9.46884 28.5912 11.2452 28.6209C11.594 33.1065 14.2011 36.9677 17.9272 39.0678C17.9272 39.7191 17.5123 40.297 16.8948 40.5046L6.17999 44.1101C2.70935 45.2846 0.552413 48.4095 0.488556 52.03V64.0479C0.488556 64.5737 0.914864 65 1.4407 65C1.96654 65 2.39323 64.5737 2.39323 64.0479V52.0305C2.43602 49.8438 3.51067 47.7816 5.37511 46.5923L8.11412 49.6486C9.03085 50.6718 9.53574 51.9918 9.53574 53.3654V64.0479C9.53574 64.5737 9.96205 65 10.4879 65C11.0137 65 11.44 64.5737 11.44 64.0479V61.1297H23.4179V64.0479C23.4179 64.5737 23.8442 65 24.3701 65C24.8959 65 25.3222 64.5737 25.3222 64.0479V61.1297H37.3003V64.0479C37.3003 64.5737 37.7266 65 38.2524 65C38.7783 65 39.2046 64.5737 39.2046 64.0479V53.366C39.2046 51.9914 39.7093 50.6711 40.6258 49.6483L42.855 47.1613C43.3286 48.3542 44.1293 49.4015 45.1904 50.1651V52.9031C43.7147 52.7408 42.3903 53.8293 42.3902 55.3257V62.5776C42.3902 63.9133 43.4769 65.0001 44.8127 65.0001H50.0504C52.4968 65.0001 54.4871 63.0099 54.4871 60.5635V57.3399C54.4872 55.4713 53.3253 53.8699 51.6867 53.2172ZM38.8302 25.3081C38.8302 26.0287 38.2537 26.6584 37.5353 26.713V24.6698C37.8239 24.5612 38.096 24.4185 38.3466 24.2465C38.6466 24.5097 38.8302 24.8949 38.8302 25.3081ZM11.2051 26.713C10.4847 26.6581 9.91013 26.0324 9.91013 25.3081C9.91013 24.8949 10.0937 24.5097 10.3937 24.2464C10.6442 24.4184 10.9162 24.5611 11.2051 24.6697V26.713ZM10.6471 21.1187C10.6471 20.0789 11.492 19.2329 12.5311 19.2306C12.543 19.2306 25.1666 19.2304 25.1798 19.2304C25.7056 19.2304 26.1319 18.804 26.1319 18.2782C26.1319 17.7524 25.7056 17.3261 25.1798 17.3261H13.4877V13.2577C13.4877 9.69351 15.7731 6.58252 19.0628 5.46698V11.1773C19.0628 11.7032 19.4891 12.1295 20.015 12.1295C20.5408 12.1295 20.9671 11.7032 20.9671 11.1773V3.60318C20.9671 2.6664 21.7292 1.9043 22.666 1.9043H26.0744C27.0112 1.9043 27.7733 2.6664 27.7733 3.60318V11.1775C27.7733 11.7033 28.1996 12.1296 28.7255 12.1296C29.2513 12.1296 29.6776 11.7033 29.6776 11.1775V5.46711C32.9674 6.58265 35.2528 9.69363 35.2528 13.2578V17.3262H29.6234C29.0976 17.3262 28.6713 17.7525 28.6713 18.2783C28.6713 18.8042 29.0976 19.2305 29.6234 19.2305C29.632 19.2305 36.197 19.2309 36.2049 19.2309C37.2455 19.2309 38.0933 20.0774 38.0933 21.1187C38.0933 22.1598 37.2463 23.0068 36.205 23.0068H12.5354C11.4942 23.0068 10.6471 22.1598 10.6471 21.1187ZM13.1093 27.5907V24.9111H35.6308V27.5907C35.6308 33.7999 30.5792 38.8515 24.3701 38.8515C18.1609 38.8515 13.1093 33.7999 13.1093 27.5907ZM19.7258 39.9095C21.1707 40.4562 22.7361 40.7558 24.3701 40.7558C26.0041 40.7558 27.5694 40.4562 29.0144 39.9095C29.3048 41.056 30.173 41.9845 31.336 42.3424C29.3875 43.95 26.9201 44.8508 24.37 44.8508C21.8199 44.8508 19.3524 43.95 17.4039 42.3424C18.5598 41.9731 19.438 41.0606 19.7258 39.9095ZM24.353 55.0186C23.0861 53.8557 21.9316 52.5681 20.9163 51.1851C20.605 50.7612 20.0092 50.6698 19.5854 50.9809C19.1615 51.2921 19.07 51.888 19.3812 52.3119C20.5629 53.9218 21.9212 55.4101 23.4179 56.7384V59.2254H11.44V53.3654C11.44 51.5222 10.7626 49.7509 9.53232 48.3778L7.20057 45.7759L14.9408 43.1713C15.4438 44.9728 16.1222 46.724 16.9676 48.3886C17.2084 48.8627 17.7869 49.0403 18.2476 48.8064C18.7165 48.5683 18.9036 47.9951 18.6654 47.5263C18.2036 46.6168 17.7949 45.6796 17.441 44.7217C19.4923 46.0349 21.8982 46.7551 24.3701 46.7551C26.8004 46.7551 29.1664 46.0582 31.1947 44.7868C30.5408 46.4457 29.7353 48.0413 28.7855 49.556C27.5364 51.5483 26.0468 53.3838 24.353 55.0186ZM39.2077 48.3773C37.9778 49.75 37.3004 51.5216 37.3004 53.3659V59.2253H25.3224V56.7228C27.2735 54.8977 28.9818 52.8277 30.399 50.5676C31.8474 48.2577 32.9804 45.771 33.7759 43.1633L41.5395 45.7756L39.2077 48.3773ZM44.2701 44.6088C44.2701 43.5629 44.6011 42.5513 45.1905 41.721V43.3456C45.1905 44.4243 46.059 45.302 47.1266 45.302H49.7507C50.8182 45.302 51.6867 44.4243 51.6867 43.3456V41.7103C52.2815 42.5376 52.6071 43.5419 52.6071 44.6088C52.6071 46.2625 51.8015 47.7937 50.4492 48.7067C50.0316 48.9907 49.7824 49.4611 49.7824 49.9649V52.9033H47.0948V49.9649C47.0948 49.4611 46.8456 48.9907 46.4254 48.7048C45.0758 47.7937 44.2701 46.2625 44.2701 44.6088ZM52.5829 60.5634C52.5829 61.9597 51.4469 63.0957 50.0505 63.0957H44.8128C44.5272 63.0957 44.2946 62.8633 44.2946 62.5775V55.3255C44.2946 55.0399 44.5271 54.8073 44.8128 54.8073H50.0505C51.4469 54.8073 52.5829 55.9433 52.5829 57.3396V60.5634Z" fill="#155DA0"/>
</svg>
