<svg width="61" height="65" viewBox="0 0 61 65" fill="none" xmlns="http://www.w3.org/2000/svg">
<path d="M60.4265 14.3421L30.914 0.0946436C30.6524 -0.0315479 30.3477 -0.0315479 30.0861 0.0946436L0.573478 14.3421C0.244416 14.5009 0.0353241 14.8342 0.0353241 15.1995V49.8005C0.0353241 50.1658 0.244416 50.4991 0.573478 50.6579L30.086 64.9054C30.2168 64.9685 30.3585 65.0001 30.5 65.0001C30.6416 65.0001 30.7831 64.9685 30.914 64.9054L60.4265 50.6579C60.7556 50.4991 60.9647 50.1658 60.9647 49.8005V15.1997C60.9647 14.834 60.7555 14.501 60.4265 14.3421ZM30.5 2.00948L57.8225 15.1995L49.9023 19.0231C49.8521 18.9849 49.7992 18.9496 49.741 18.9215L22.6042 5.82125L30.5 2.00948ZM20.4538 6.89781L47.7366 20.0687L42.1487 22.7663L14.8773 9.60077L20.4538 6.89781ZM48.3749 21.875V31.8466L43.1555 34.3664V24.3947L48.3749 21.875ZM59.0604 49.203L31.4522 62.5308V30.0445L38.0376 26.8654C38.5111 26.6367 38.7097 26.0676 38.481 25.5939C38.2524 25.1205 37.6833 24.9217 37.2096 25.1505L30.5 28.3897L27.8599 27.1151C27.3862 26.8862 26.8171 27.085 26.5885 27.5585C26.3598 28.0321 26.5584 28.6013 27.0319 28.83L29.5479 30.0445V62.5308L1.93962 49.2028V16.7165L22.9631 26.8658C23.0965 26.9302 23.2375 26.9607 23.3763 26.9607C23.7302 26.9607 24.0702 26.7624 24.2344 26.4223C24.463 25.9488 24.2645 25.3795 23.7909 25.1509L3.17754 15.1995L12.6362 10.6333L41.238 24.4411C41.2421 24.4469 41.2468 24.4521 41.2512 24.4578V35.8835C41.2512 36.2112 41.4196 36.5157 41.6971 36.69C41.8513 36.7868 42.0271 36.8356 42.2034 36.8356C42.3446 36.8356 42.4862 36.8043 42.6173 36.7409L49.741 33.3019C50.0701 33.1431 50.2792 32.81 50.2792 32.4445V20.9558L59.0604 16.7166V49.203V49.203Z" fill="#155DA0"/>
</svg>
