<svg width="65" height="65" viewBox="0 0 65 65" fill="none" xmlns="http://www.w3.org/2000/svg">
<path d="M23.6642 30.8033C22.9353 30.0744 21.9664 29.6731 20.9357 29.6731C19.9049 29.6731 18.936 30.0745 18.2072 30.8033C16.9384 32.0722 16.7397 34.0121 17.6112 35.4913L12.1055 40.9969C11.7285 41.3739 11.7285 41.9852 12.1055 42.3621C12.4825 42.739 13.0938 42.739 13.4706 42.3621L18.8898 36.9429L22.0322 40.0854L25.1745 43.2279L14.7978 53.6047L8.51302 47.3197L10.787 45.0457C11.164 44.6687 11.164 44.0574 10.787 43.6806C10.41 43.3036 9.79872 43.3036 9.42185 43.6806L6.46534 46.6371C6.28424 46.8181 6.18256 47.0636 6.18256 47.3197C6.18256 47.5757 6.28424 47.8212 6.46534 48.0022L6.80925 48.3461L0.282779 54.8727C-0.0942189 55.2497 -0.0942189 55.861 0.282779 56.2379C0.471213 56.4264 0.718341 56.5206 0.965339 56.5206C1.21234 56.5206 1.45946 56.4264 1.6479 56.2379L8.17437 49.7114L12.4066 53.9434L5.88008 60.4699C5.50308 60.8469 5.50308 61.4582 5.88008 61.835C6.06852 62.0235 6.31564 62.1178 6.56264 62.1178C6.80964 62.1178 7.05677 62.0236 7.2452 61.835L13.7717 55.3086L14.1153 55.6521C14.3038 55.8405 14.5509 55.9349 14.7979 55.9349C15.0449 55.9349 15.292 55.8407 15.4805 55.6521L26.6262 44.5064C27.2284 44.8611 27.907 45.0386 28.5857 45.0386C29.5738 45.0386 30.5619 44.6625 31.3142 43.9102C32.8188 42.4057 32.8188 39.9577 31.3142 38.4532L23.6642 30.8033ZM29.9491 42.5452C29.1973 43.2969 27.9742 43.2969 27.2224 42.5452L19.5723 34.8951C18.8207 34.1434 18.8207 32.9201 19.5723 32.1683C19.9482 31.7925 20.4419 31.6045 20.9357 31.6045C21.4294 31.6045 21.9231 31.7925 22.299 32.1683L29.9491 39.8184C30.7009 40.5704 30.7009 41.7934 29.9491 42.5452Z" fill="#155DA0"/>
<path d="M30.4653 17.9197C27.5049 21.6273 25.2632 25.8009 24.3154 29.3705C24.1786 29.8857 24.4854 30.4143 25.0007 30.5513C25.0837 30.5733 25.167 30.5838 25.2491 30.5838C25.6761 30.5838 26.0667 30.2982 26.1815 29.866C27.0631 26.5456 29.1744 22.6306 31.9739 19.1245C34.2871 16.2275 38.1601 12.2614 43.4745 9.81845C50.012 6.81328 56.7882 6.95937 63.6149 10.2527C64.095 10.4844 64.6723 10.2831 64.9039 9.80275C65.1355 9.32252 64.934 8.74551 64.4539 8.51383C60.6488 6.67813 56.7875 5.7478 52.9748 5.7478C52.9339 5.7478 52.8927 5.74793 52.8518 5.74819C49.3982 5.76634 45.972 6.54556 42.6681 8.06423C37.0096 10.6654 32.909 14.8595 30.4653 17.9197Z" fill="#155DA0"/>
<path d="M33.9533 25.9225C30.3089 29.1128 28.7163 32.4843 28.6503 32.6262C28.4257 33.1092 28.635 33.6819 29.1175 33.9073C29.2494 33.969 29.3882 33.998 29.5249 33.998C29.888 33.998 30.2361 33.792 30.4004 33.4416C30.4152 33.41 31.9218 30.2452 35.2849 27.323C39.7545 23.4395 45.2341 21.7898 51.5709 22.4203C52.1014 22.473 52.5744 22.0856 52.627 21.5552C52.6798 21.0246 52.2925 20.5519 51.762 20.499C43.1434 19.6425 37.3203 22.9753 33.9533 25.9225Z" fill="#155DA0"/>
<path d="M49.5914 47.0029C49.0748 47.1349 48.7632 47.6607 48.8954 48.1773C49.7815 51.6419 50.0511 55.9849 49.697 61.0858C49.6602 61.6176 50.0614 62.0788 50.5933 62.1156C50.616 62.1171 50.6387 62.118 50.6611 62.118C51.1637 62.118 51.5877 61.7285 51.6232 61.2195C51.9916 55.9126 51.7031 51.3636 50.766 47.6991C50.6338 47.1825 50.1084 46.8704 49.5914 47.0029Z" fill="#155DA0"/>
<path d="M49.6759 44.4582C47.2284 38.7718 43.0967 36.9428 40.0615 36.4097C36.8067 35.8379 34.1454 36.6033 34.0336 36.6362C33.5221 36.7867 33.2295 37.3233 33.38 37.8348C33.5305 38.3461 34.0661 38.6387 34.5787 38.4885C34.6016 38.4817 36.913 37.8169 39.7277 38.3114C43.4608 38.967 46.2113 41.292 47.9028 45.2217C48.0601 45.587 48.4159 45.8057 48.79 45.8057C48.9173 45.8057 49.0468 45.7803 49.1711 45.7268C49.6606 45.5157 49.8868 44.9478 49.6759 44.4582Z" fill="#155DA0"/>
<path d="M60.9509 36.8187C58.5629 33.9524 55.3457 31.9173 51.8917 31.0884C51.3735 30.9639 50.8521 31.2834 50.7278 31.8017C50.6033 32.3202 50.9228 32.8413 51.4412 32.9657C54.4935 33.6982 57.3438 35.5054 59.4674 38.0543C61.8236 40.8825 63.0689 44.3664 63.0689 48.1294C63.0689 48.6625 63.501 49.0947 64.0343 49.0947C64.5675 49.0947 64.9996 48.6625 64.9996 48.1294C64.9998 43.9092 63.5996 39.998 60.9509 36.8187Z" fill="#155DA0"/>
<path d="M62.7473 19.6575C62.9943 19.6575 63.2414 19.5633 63.43 19.3747C63.807 18.9977 63.807 18.3865 63.43 18.0096C59.0208 13.6006 53.5408 12.1987 46.6767 13.7243C46.1562 13.8399 45.8281 14.3556 45.9438 14.876C46.0592 15.3965 46.5751 15.7251 47.0955 15.6089C53.3491 14.2193 58.1059 15.4157 62.0647 19.3747C62.2531 19.5633 62.5003 19.6575 62.7473 19.6575Z" fill="#155DA0"/>
<path d="M22.984 23.1799C23.5171 23.1799 23.9493 22.7477 23.9493 22.2146C23.9493 19.9122 24.4597 16.1872 25.892 12.6376C27.9066 7.64475 30.6918 5.58446 32.6734 4.73509C33.1634 4.52503 33.3904 3.95754 33.1804 3.46753C32.9702 2.97752 32.4028 2.75073 31.9127 2.96053C28.5921 4.3837 25.891 7.48013 24.1015 11.9152C22.5657 15.7211 22.0185 19.7309 22.0185 22.2146C22.0187 22.7477 22.4509 23.1799 22.984 23.1799Z" fill="#155DA0"/>
</svg>
