<svg width="65" height="65" viewBox="0 0 65 65" fill="none" xmlns="http://www.w3.org/2000/svg">
<g clip-path="url(#clip0)">
<path d="M24.427 15.7041C24.5885 15.9121 24.645 16.1883 24.5779 16.4431L23.39 20.9577C23.1225 21.9747 23.4469 23.0374 24.2369 23.7312C24.7515 24.1831 25.3958 24.4191 26.0516 24.4191C26.4026 24.4191 26.7569 24.3515 27.0964 24.2133L32.3059 22.0923C32.5129 22.0081 32.7411 22.0081 32.9479 22.0922L33.2588 22.2189C33.7464 22.4176 34.3025 22.1835 34.5009 21.696C34.6995 21.2086 34.4655 20.6524 33.978 20.4539L33.6667 20.3271C32.9961 20.0542 32.2575 20.0542 31.5872 20.3271L26.3777 22.448C25.9376 22.6269 25.6135 22.4035 25.4949 22.2992C25.3758 22.1948 25.1124 21.9022 25.2332 21.4428L26.4212 16.9282C26.6384 16.1033 26.4556 15.2085 25.9321 14.5348L22.903 10.6353C22.7272 10.4091 22.6771 10.1229 22.7655 9.85023C22.8539 9.57754 23.0625 9.37538 23.3377 9.29532L27.5873 8.0597C28.2322 7.87215 28.7856 7.45676 29.1456 6.88977L31.9082 2.53816C32.1345 2.18147 32.4863 2.1431 32.627 2.1431C32.7677 2.1431 33.1194 2.1816 33.3457 2.53816L36.1083 6.88977C36.4683 7.45676 37.0217 7.87215 37.6666 8.0597L41.916 9.29519C42.1914 9.37538 42.4 9.57767 42.4884 9.85023C42.5768 10.1229 42.5267 10.409 42.3509 10.6354L39.3218 14.5346C38.7985 15.2084 38.6157 16.1031 38.8327 16.9281L40.0207 21.4428C40.1415 21.9022 39.8781 22.1948 39.7592 22.2991C39.6401 22.4035 39.3161 22.6269 38.876 22.448L37.7405 21.9857C37.2527 21.7874 36.6969 22.0216 36.4986 22.509C36.3001 22.9966 36.5344 23.5526 37.0218 23.751L38.1573 24.2133C39.1312 24.6097 40.2269 24.425 41.017 23.7312C41.807 23.0372 42.1315 21.9745 41.8639 20.9577L40.676 16.4432C40.609 16.1882 40.6654 15.9119 40.8269 15.7039L43.856 11.8047C44.417 11.0826 44.5836 10.1321 44.3014 9.26228C44.0192 8.39224 43.3265 7.72043 42.4482 7.46489L38.1989 6.22939C37.9998 6.17158 37.8289 6.04324 37.7178 5.86826L34.9552 1.51678C34.4466 0.715349 33.5763 0.237061 32.6274 0.237061C32.6273 0.237061 32.6273 0.237061 32.6273 0.237061C31.6782 0.237061 30.8079 0.715477 30.2992 1.51665L27.5366 5.86826C27.4256 6.04324 27.2546 6.17158 27.0555 6.22939L22.8058 7.46514C21.9276 7.72055 21.235 8.39237 20.9528 9.26241C20.6706 10.1322 20.8371 11.0827 21.3982 11.8047L24.427 15.7041Z" fill="#155DA0"/>
<path d="M43.5451 16.0098C43.3525 16.6036 43.4662 17.2522 43.8492 17.745L45.4018 19.7437L44.793 22.0572C44.6103 22.7514 44.8319 23.4769 45.3712 23.9504C45.7224 24.259 46.1623 24.42 46.6099 24.42C46.8495 24.42 47.0913 24.374 47.3231 24.2795L49.9969 23.1911L52.6706 24.2795C53.3348 24.55 54.0831 24.4243 54.6224 23.9506C55.1616 23.4769 55.3833 22.7514 55.2007 22.0574L54.5919 19.7437L56.1444 17.745C56.5275 17.2521 56.6411 16.6034 56.4486 16.0096C56.2561 15.4158 55.7833 14.9572 55.1836 14.7828L53.0039 14.149L51.586 11.9156C51.2389 11.3687 50.6448 11.0422 49.9969 11.0422C49.3491 11.0422 48.7552 11.3687 48.4078 11.9157L46.9901 14.149L44.8102 14.7829C44.2104 14.9574 43.7375 15.416 43.5451 16.0098V16.0098ZM47.5306 15.9767C47.9709 15.8488 48.3486 15.5651 48.5942 15.1782L49.9968 12.9687L51.3992 15.1782C51.645 15.5651 52.0225 15.8488 52.4629 15.9768L54.6177 16.6034L53.0795 18.5837C52.722 19.0435 52.5973 19.6545 52.7455 20.2174L53.3451 22.4964L50.7065 21.4221C50.2489 21.2357 49.7448 21.2357 49.287 21.4221L46.6483 22.4963L47.2479 20.2173C47.3961 19.6542 47.2713 19.0437 46.9141 18.5839L45.3758 16.6034L47.5306 15.9767Z" fill="#155DA0"/>
<path d="M10.5631 19.7439L9.95429 22.0576C9.77156 22.7518 9.9933 23.4772 10.5326 23.9508C10.8839 24.2593 11.3236 24.4202 11.7713 24.4202C12.0108 24.4202 12.2527 24.3741 12.4844 24.2798L15.158 23.1913L17.8318 24.2798C18.4964 24.5506 19.2444 24.4245 19.7837 23.9507C20.323 23.477 20.5445 22.7515 20.3619 22.0576L19.7531 19.7439L21.3056 17.7453C21.6888 17.2524 21.8024 16.6037 21.6098 16.0099C21.4173 15.4161 20.9445 14.9575 20.3449 14.783L18.1651 14.1492L16.7473 11.9158C16.4001 11.3689 15.8061 11.0425 15.1583 11.0425C14.5104 11.0425 13.9164 11.3689 13.569 11.916L12.1513 14.1492L9.97144 14.7831C9.37193 14.9575 8.89911 15.4161 8.7066 16.0099C8.51396 16.6037 8.62769 17.2524 9.01067 17.7451L10.5631 19.7439ZM12.692 15.9768C13.1323 15.8489 13.5099 15.5653 13.7556 15.1783L15.1582 12.9689L16.5606 15.1783C16.8064 15.5653 17.1839 15.8489 17.6243 15.977L19.779 16.6035L18.2407 18.584C17.8835 19.0438 17.7588 19.6545 17.9069 20.2175L18.5064 22.4965L15.8678 21.4223C15.639 21.3291 15.3986 21.2825 15.158 21.2825C14.9176 21.2825 14.6772 21.329 14.4483 21.4223L11.8096 22.4965L12.4093 20.2178C12.5576 19.6545 12.4328 19.0437 12.0755 18.584L10.5372 16.6035L12.692 15.9768Z" fill="#155DA0"/>
<path d="M59.3549 21.125H58.8975C58.3753 21.125 57.9522 21.5902 57.9522 22.1642C57.9522 22.7383 58.3753 23.2034 58.8975 23.2034H59.3549C61.4251 23.2034 63.1094 25.0551 63.1094 27.3311V53.9189C63.1094 56.1949 61.4251 58.0466 59.3549 58.0466H49.6953C49.1731 58.0466 48.75 58.5117 48.75 59.0858C48.75 59.6598 49.1731 60.125 49.6953 60.125H59.3549C62.4676 60.125 65 57.3409 65 53.9189V27.3311C65 23.9091 62.4676 21.125 59.3549 21.125Z" fill="#155DA0"/>
<path d="M45.3627 57.8885H37.3012C36.7634 57.8885 36.2528 58.1422 35.9004 58.5847L32.4672 62.8947C32.4602 62.9034 32.4388 62.9303 32.3955 62.9303C32.3522 62.9303 32.3307 62.9035 32.3237 62.8946L28.6203 58.2451C28.4398 58.0186 28.1781 57.8885 27.9027 57.8885H5.67301C3.59248 57.8885 1.89991 56.0448 1.89991 53.7785V27.3044C1.89991 25.0382 3.59248 23.1945 5.67288 23.1945H6.28655C6.81131 23.1945 7.23651 22.7314 7.23651 22.1598C7.23651 21.5882 6.81131 21.125 6.28655 21.125H5.67288C2.54487 21.1249 0 23.897 0 27.3044V53.7786C0 57.1859 2.545 59.9582 5.67301 59.9582H27.4692L30.8885 64.251C31.2677 64.727 31.8171 65.0001 32.3956 65C32.9741 65 33.5233 64.727 33.9024 64.251L37.3219 59.9582H45.3625C45.8873 59.9582 46.3125 59.495 46.3125 58.9234C46.3125 58.3518 45.8873 57.8885 45.3627 57.8885V57.8885Z" fill="#155DA0"/>
<path d="M57.8067 31.0349H12.9444C12.418 31.0349 11.9914 31.4615 11.9914 31.9879C11.9914 32.5144 12.418 32.9409 12.9444 32.9409H57.8067C58.3332 32.9409 58.7598 32.5144 58.7598 31.9879C58.7598 31.4615 58.3331 31.0349 57.8067 31.0349Z" fill="#155DA0"/>
<path d="M57.8068 36.835H7.44173C6.91528 36.835 6.48871 37.2615 6.48871 37.788C6.48871 38.3144 6.91528 38.741 7.44173 38.741H57.8067C58.3331 38.741 58.7597 38.3144 58.7597 37.788C58.7597 37.2615 58.3331 36.835 57.8068 36.835Z" fill="#155DA0"/>
<path d="M57.8068 42.6353H7.44173C6.91528 42.6353 6.48871 43.0618 6.48871 43.5883C6.48871 44.1147 6.91528 44.5413 7.44173 44.5413H57.8067C58.3331 44.5413 58.7597 44.1147 58.7597 43.5883C58.7597 43.0618 58.3331 42.6353 57.8068 42.6353Z" fill="#155DA0"/>
<path d="M57.8068 48.4355H7.44173C6.91528 48.4355 6.48871 48.8621 6.48871 49.3886C6.48871 49.915 6.91528 50.3416 7.44173 50.3416H57.8067C58.3331 50.3416 58.7597 49.915 58.7597 49.3886C58.7597 48.8621 58.3331 48.4355 57.8068 48.4355Z" fill="#155DA0"/>
</g>
<defs>
<clipPath id="clip0">
<rect width="65" height="65" fill="white"/>
</clipPath>
</defs>
</svg>
