<svg width="32" height="33" viewBox="0 0 32 33" fill="none" xmlns="http://www.w3.org/2000/svg">
<g clip-path="url(#clip0)">
<path d="M31.7253 13.5915L27.7763 9.64231V1.4375C27.7763 0.91975 27.3565 0.5 26.8388 0.5H5.1616C4.64385 0.5 4.2241 0.91975 4.2241 1.4375V9.64231C-0.0941529 13.9607 0.00047198 13.7366 0.00047198 14.2544V31.5625C0.00047198 32.0802 0.420222 32.5 0.937972 32.5H31.0625C31.5802 32.5 32 32.0802 32 31.5625C32 31.4368 32.0021 14.2435 31.9961 14.1739C31.9765 13.9448 31.873 13.7392 31.7253 13.5915ZM29.6137 14.1314L27.7763 15.4324V12.2939L29.6137 14.1314ZM25.9013 2.375V16.7599L19.4072 21.358C17.5447 22.6766 15.022 22.7059 13.1324 21.4277C12.8933 21.2649 6.53385 16.9324 6.0991 16.6362V2.375H25.9013ZM4.22416 15.3588L2.40122 14.1169L4.22416 12.294V15.3588ZM30.125 30.625H1.87541V16.0274C2.23416 16.2719 10.2327 21.721 10.6252 21.9884L5.50028 27.1134C5.13416 27.4795 5.13416 28.0731 5.50028 28.4393C5.86641 28.8054 6.45997 28.8054 6.8261 28.4393L12.2047 23.0605C14.5827 24.6009 17.7258 24.6854 20.2325 23.0625L25.6091 28.4393C25.9751 28.8053 26.5687 28.8054 26.9349 28.4393C27.301 28.0732 27.301 27.4796 26.9349 27.1134L21.7899 21.9683C22.0937 21.7533 29.7302 16.3464 30.125 16.0669V30.625Z" fill="#155DA0"/>
<path d="M9.53613 6.75H22.4634C22.9811 6.75 23.4009 6.33025 23.4009 5.8125C23.4009 5.29475 22.9811 4.875 22.4634 4.875H9.53613C9.01838 4.875 8.59863 5.29475 8.59863 5.8125C8.59863 6.33025 9.01838 6.75 9.53613 6.75Z" fill="#155DA0"/>
<path d="M9.53613 11.125H22.4634C22.9811 11.125 23.4009 10.7053 23.4009 10.1875C23.4009 9.66975 22.9811 9.25 22.4634 9.25H9.53613C9.01838 9.25 8.59863 9.66975 8.59863 10.1875C8.59863 10.7053 9.01838 11.125 9.53613 11.125Z" fill="#155DA0"/>
<path d="M9.53613 15.5H22.4634C22.9811 15.5 23.4009 15.0803 23.4009 14.5625C23.4009 14.0447 22.9811 13.625 22.4634 13.625H9.53613C9.01838 13.625 8.59863 14.0447 8.59863 14.5625C8.59863 15.0803 9.01838 15.5 9.53613 15.5Z" fill="#155DA0"/>
</g>
<defs>
<clipPath id="clip0">
<rect width="32" height="32" fill="white" transform="translate(0 0.5)"/>
</clipPath>
</defs>
</svg>
