<svg width="76" height="79" viewBox="0 0 76 79" fill="none" xmlns="http://www.w3.org/2000/svg">
<g clip-path="url(#clip0)">
<path d="M36.9982 0.0201069C21.8578 0.570828 9.27986 12.8163 7.82676 28.447C7.52989 31.5732 7.70176 34.6022 8.23301 37.5015C8.23301 37.5015 8.27988 37.8417 8.43613 38.4896C8.90487 40.6601 9.60798 42.7658 10.483 44.7419C13.5298 52.2252 20.5766 64.746 36.3888 78.3683C37.3576 79.2106 38.7794 79.2106 39.7638 78.3683C55.576 64.7622 62.6228 52.2414 65.6852 44.7257C66.5759 42.7496 67.2633 40.6601 67.7321 38.4734C67.8727 37.8417 67.9352 37.4853 67.9352 37.4853C68.2946 35.5416 68.4821 33.5493 68.4821 31.5084C68.4821 13.7233 54.2792 -0.611603 36.9982 0.0201069Z" fill="#155DA0"/>
<path d="M37.9973 19.8247C31.3334 19.8247 25.9119 25.2434 25.9119 31.904C25.9119 38.5646 31.3334 43.9834 37.9973 43.9834C44.6613 43.9834 50.0828 38.5646 50.0828 31.904C50.0828 25.2434 44.6613 19.8247 37.9973 19.8247ZM37.9973 21.9575C41.0655 21.9575 43.8135 23.3528 45.6405 25.5415C45.5145 25.6158 45.4016 25.6906 45.2982 25.7592C44.9514 25.9893 44.7773 26.1048 44.3102 26.1048C43.843 26.1048 43.669 25.9893 43.3222 25.7592C42.876 25.4631 42.2649 25.0575 41.1539 25.0575C40.043 25.0575 39.4319 25.4631 38.9857 25.7592C38.639 25.9893 38.4649 26.1048 37.9978 26.1048C37.5306 26.1048 37.3566 25.9893 37.0098 25.7592C36.5636 25.4631 35.9525 25.0575 34.8415 25.0575C33.7305 25.0575 33.1194 25.4631 32.6732 25.7592C32.3264 25.9893 32.1523 26.1048 31.6851 26.1048C31.2178 26.1048 31.0437 25.9893 30.6969 25.7592C30.5934 25.6905 30.4804 25.6157 30.3543 25.5414C32.1813 23.3527 34.9293 21.9575 37.9973 21.9575ZM47.2458 35.5765C46.2731 35.6259 45.7139 35.9963 45.2982 36.2722C44.9515 36.5023 44.7773 36.6178 44.3102 36.6178C43.8431 36.6178 43.669 36.5023 43.3223 36.2722C42.8761 35.9761 42.2649 35.5706 41.154 35.5706C40.043 35.5706 39.432 35.9761 38.9858 36.2722C38.639 36.5023 38.465 36.6178 37.9979 36.6178C37.5307 36.6178 37.3567 36.5023 37.0098 36.2722C36.5636 35.9761 35.9526 35.5706 34.8416 35.5706C33.7305 35.5706 33.1195 35.9761 32.6733 36.2722C32.3264 36.5023 32.1523 36.6178 31.6852 36.6178C31.2179 36.6178 31.0438 36.5023 30.697 36.2722C30.2812 35.9963 29.7219 35.6259 28.749 35.5765C28.3664 34.6173 28.1294 33.585 28.0646 32.507C28.1902 32.4677 28.3342 32.4469 28.5286 32.4469C28.9959 32.4469 29.17 32.5624 29.5168 32.7926C29.963 33.0887 30.5741 33.4941 31.6852 33.4941C32.7962 33.4941 33.4072 33.0886 33.8534 32.7925C34.2003 32.5624 34.3743 32.4468 34.8416 32.4468C35.3087 32.4468 35.4828 32.5624 35.8295 32.7925C36.2757 33.0886 36.8869 33.4941 37.9978 33.4941C39.1088 33.4941 39.7198 33.0886 40.166 32.7925C40.5128 32.5624 40.6868 32.4468 41.1539 32.4468C41.6211 32.4468 41.7951 32.5624 42.142 32.7925C42.5882 33.0886 43.1992 33.4941 44.3102 33.4941C45.4213 33.4941 46.0323 33.0886 46.4785 32.7925C46.8253 32.5624 46.9993 32.4468 47.4665 32.4468C47.6608 32.4468 47.8046 32.4676 47.9302 32.5069C47.8653 33.5849 47.6284 34.6172 47.2458 35.5765ZM47.4665 30.3141C46.3555 30.3141 45.7444 30.7196 45.2982 31.0157C44.9515 31.2458 44.7773 31.3613 44.3102 31.3613C43.8431 31.3613 43.669 31.2458 43.3223 31.0157C42.8761 30.7196 42.2649 30.3141 41.154 30.3141C40.043 30.3141 39.432 30.7196 38.9858 31.0157C38.639 31.2458 38.465 31.3613 37.9979 31.3613C37.5307 31.3613 37.3567 31.2458 37.0098 31.0157C36.5636 30.7196 35.9526 30.3141 34.8416 30.3141C33.7305 30.3141 33.1195 30.7196 32.6733 31.0157C32.3264 31.2458 32.1523 31.3613 31.6852 31.3613C31.2179 31.3613 31.0438 31.2458 30.697 31.0157C30.2508 30.7196 29.6396 30.3141 28.5286 30.3141C28.403 30.3141 28.2844 30.3201 28.1709 30.3298C28.3417 29.2612 28.6832 28.2488 29.1668 27.3216C29.2748 27.3758 29.3824 27.4469 29.5167 27.536C29.9629 27.8321 30.5741 28.2376 31.6851 28.2376C32.7961 28.2376 33.4072 27.8321 33.8534 27.536C34.2002 27.3058 34.3742 27.1903 34.8415 27.1903C35.3086 27.1903 35.4827 27.3058 35.8295 27.536C36.2756 27.8321 36.8868 28.2376 37.9977 28.2376C39.1087 28.2376 39.7198 27.8321 40.1659 27.536C40.5127 27.3058 40.6867 27.1903 41.1538 27.1903C41.621 27.1903 41.7951 27.3058 42.1419 27.536C42.5881 27.8321 43.1992 28.2376 44.3102 28.2376C45.4212 28.2376 46.0322 27.8321 46.4785 27.536C46.6127 27.447 46.7202 27.3759 46.828 27.3218C47.3115 28.249 47.6531 29.2612 47.8239 30.3298C47.7104 30.32 47.592 30.3141 47.4665 30.3141ZM37.9973 41.8507C35.0951 41.8507 32.4793 40.6023 30.6586 38.6148C30.9459 38.6969 31.2823 38.7506 31.685 38.7506C32.796 38.7506 33.4071 38.3451 33.8533 38.049C34.2001 37.8189 34.3742 37.7033 34.8414 37.7033C35.3085 37.7033 35.4826 37.8189 35.8294 38.049C36.2756 38.3451 36.8867 38.7506 37.9977 38.7506C39.1086 38.7506 39.7197 38.3451 40.1659 38.049C40.5126 37.8189 40.6867 37.7033 41.1538 37.7033C41.6209 37.7033 41.795 37.8189 42.1418 38.049C42.588 38.3451 43.1991 38.7506 44.3101 38.7506C44.7125 38.7506 45.0486 38.697 45.3358 38.615C43.5152 40.6023 40.8995 41.8507 37.9973 41.8507Z" fill="white"/>
<path d="M29.3347 18.3347C35.5412 14.3764 43.4675 15.145 48.7603 19.9197L46.955 19.7859L46.7973 21.9129L52.4775 22.3336L52.4772 16.6469L50.3433 16.6471L50.3435 18.482C47.7677 16.1127 44.5457 14.5236 41.0389 13.9298C36.5727 13.1736 32.0085 14.0994 28.1869 16.5367C24.6156 18.8144 21.935 22.2848 20.6388 26.3088C19.36 30.2793 19.4802 34.5966 20.9776 38.4654L22.9677 37.6959C20.2157 30.5853 22.8934 22.4427 29.3347 18.3347Z" fill="white"/>
<path d="M55.0174 25.3433L53.0273 26.1127C55.7793 33.2234 53.1016 41.366 46.6604 45.474C43.9726 47.1882 40.9636 48.0158 37.9842 48.0156C34.0845 48.0153 30.2379 46.5953 27.237 43.8892L29.0401 44.0227L29.1978 41.8958L23.5175 41.475L23.5178 47.1617L25.6517 47.1616L25.6516 45.3266C28.2274 47.696 31.4493 49.285 34.9561 49.8788C35.972 50.0509 36.9922 50.1358 38.0085 50.1358C41.4596 50.1357 44.8559 49.1548 47.8082 47.2719C51.3795 44.9943 54.0601 41.5238 55.3562 37.4998C56.635 33.5293 56.5147 29.212 55.0174 25.3433Z" fill="white"/>
</g>
<defs>
<clipPath id="clip0">
<rect width="76" height="79" fill="white"/>
</clipPath>
</defs>
</svg>
