<svg width="32" height="33" viewBox="0 0 32 33" fill="none" xmlns="http://www.w3.org/2000/svg">
<path d="M17.875 9.9375C18.3928 9.9375 18.8125 9.51777 18.8125 9C18.8125 8.48223 18.3928 8.0625 17.875 8.0625C17.3572 8.0625 16.9375 8.48223 16.9375 9C16.9375 9.51777 17.3572 9.9375 17.875 9.9375Z" fill="#155DA0"/>
<path d="M21.625 9.9375C22.1428 9.9375 22.5625 9.51777 22.5625 9C22.5625 8.48223 22.1428 8.0625 21.625 8.0625C21.1072 8.0625 20.6875 8.48223 20.6875 9C20.6875 9.51777 21.1072 9.9375 21.625 9.9375Z" fill="#155DA0"/>
<path d="M25.375 9.9375C25.8928 9.9375 26.3125 9.51777 26.3125 9C26.3125 8.48223 25.8928 8.0625 25.375 8.0625C24.8572 8.0625 24.4375 8.48223 24.4375 9C24.4375 9.51777 24.8572 9.9375 25.375 9.9375Z" fill="#155DA0"/>
<path d="M21.0758 30.5625C22.6193 30.5625 23.875 29.3008 23.875 27.75V24C23.875 23.5967 23.6171 23.2386 23.2346 23.1108L17.6229 21.2358C17.3482 21.1441 17.0468 21.1844 16.8058 21.3449L14.4194 22.9359C11.8583 21.7206 8.83119 18.7204 7.62719 16.2048L9.21756 13.8192C9.37813 13.5783 9.41844 13.2767 9.32669 13.0021L7.45169 7.39038C7.32387 7.00788 6.96581 6.75 6.5625 6.75H2.8125C1.26169 6.75 0 8.00569 0 9.54919C0 14.729 2.35525 20.0452 6.46187 24.1346C10.564 28.2196 15.8906 30.5625 21.0758 30.5625ZM2.8125 8.625H5.88731L7.40294 13.161L5.7825 15.5916C5.61125 15.8485 5.57744 16.1732 5.69212 16.4598C6.31556 18.0184 7.56319 19.7713 9.20512 21.3958C10.8363 23.0094 12.5978 24.2434 14.1652 24.8704C14.4518 24.985 14.7766 24.9512 15.0334 24.78L17.4641 23.1596L22 24.6752V27.75C22 28.2757 21.5941 28.6875 21.0758 28.6875C11.2063 28.6875 1.875 19.3866 1.875 9.54919C1.875 9.03094 2.28681 8.625 2.8125 8.625Z" fill="#155DA0"/>
<path d="M17.5163 19.2411C17.8665 19.3862 18.2698 19.306 18.5379 19.0379L22.0133 15.5625H25.375C29.028 15.5625 32 12.6186 32 9C32 5.38144 29.028 2.4375 25.375 2.4375H17.875C14.2564 2.4375 11.3125 5.38144 11.3125 9C11.3125 12.3003 13.7614 15.0394 16.9375 15.4958V18.375C16.9375 18.7542 17.1659 19.096 17.5163 19.2411ZM13.1875 9C13.1875 6.41531 15.2903 4.3125 17.875 4.3125H25.375C27.9941 4.3125 30.125 6.41531 30.125 9C30.125 11.5847 27.9941 13.6875 25.375 13.6875H21.625C21.3763 13.6875 21.1379 13.7863 20.9621 13.9621L18.8125 16.1117V14.625C18.8125 14.1073 18.3927 13.6875 17.875 13.6875C15.2903 13.6875 13.1875 11.5847 13.1875 9Z" fill="#155DA0"/>
</svg>
