<svg width="90" height="90" viewBox="0 0 90 90" fill="none" xmlns="http://www.w3.org/2000/svg">
<path d="M45 0C20.1472 0 0 20.1472 0 45C0 69.8528 20.1472 90 45 90C69.8411 89.9719 89.9719 69.8411 90 45C90 20.1472 69.8528 0 45 0ZM45 87C21.804 87 3 68.196 3 45C3 21.804 21.804 3 45 3C68.1849 3.02644 86.9736 21.8151 87 45C87 68.196 68.196 87 45 87Z" fill="#FFB800"/>
<path d="M65.1076 30.0383C64.5117 29.4626 63.562 29.4791 62.9866 30.075L38.5921 54.471L26.9251 42.804C26.3438 42.2426 25.4222 42.2426 24.841 42.804C24.2451 43.3795 24.2286 44.3292 24.8041 44.925L37.5316 57.6525C37.8128 57.9338 38.1942 58.092 38.5921 58.092C38.9899 58.092 39.3713 57.9338 39.6526 57.6525L65.1076 32.196C65.1201 32.184 65.1323 32.1716 65.1443 32.1593C65.7199 31.5634 65.7034 30.6137 65.1076 30.0383Z" fill="#FFB800"/>
</svg>
