<svg width="40" height="40" viewBox="0 0 40 40" fill="none" xmlns="http://www.w3.org/2000/svg">
<path d="M11.5082 16.6875C11.127 16.3611 10.5534 16.4055 10.227 16.7866C9.93568 17.1268 9.93568 17.6285 10.227 17.9687L19.3133 27.0551C19.6642 27.4139 20.2394 27.4203 20.5982 27.0695C20.6031 27.0647 20.6079 27.06 20.6127 27.0551L35.7688 11.1539L37.0681 9.79091L39.6759 7.06501C40.0601 6.74221 40.1098 6.16906 39.787 5.7848C39.4642 5.40061 38.891 5.35087 38.5068 5.67368C38.455 5.71717 38.4083 5.76629 38.3674 5.82017L36.0322 8.24622L34.7692 9.57282L19.9403 25.1196L11.5082 16.6875Z" fill="#155DA0"/>
<path d="M38.322 12.3988H38.3402C37.9699 12.0601 37.3952 12.0857 37.0564 12.456C36.8463 12.6857 36.7684 13.007 36.85 13.3075C40.5628 22.632 36.0136 33.2009 26.6892 36.9136C17.3647 40.6264 6.79579 36.0772 3.08297 26.7527C-0.629851 17.4282 3.91935 6.85939 13.2439 3.14657C20.0972 0.417705 27.9203 2.10241 33.0428 7.41037C33.4314 7.72794 34.0038 7.67039 34.3214 7.28184C34.6072 6.93217 34.5928 6.42571 34.2877 6.09283C34.2502 6.06565 34.2107 6.04129 34.1695 6.02013C26.4487 -1.83609 13.821 -1.94587 5.9648 5.77494C-1.8914 13.4958 -2.00127 26.1235 5.71954 33.9797C13.4403 41.836 26.0681 41.9458 33.9243 34.225C39.6048 28.6424 41.4194 20.2153 38.5401 12.7895C38.501 12.6431 38.4261 12.5088 38.322 12.3988Z" fill="#155DA0"/>
</svg>
