<svg width="37" height="38" viewBox="0 0 37 38" fill="none" xmlns="http://www.w3.org/2000/svg">
<g clip-path="url(#clip0)">
<path d="M18.4999 6.74268C11.7412 6.74268 6.24261 12.2412 6.24261 19C6.24261 25.7587 11.7412 31.2572 18.4999 31.2572C25.2586 31.2572 30.7572 25.7587 30.7572 19C30.7572 12.2412 25.2586 6.74268 18.4999 6.74268ZM18.4999 8.90687C21.6117 8.90687 24.3988 10.3228 26.2517 12.5437C26.124 12.6191 26.0095 12.6949 25.9046 12.7645C25.5529 12.9981 25.3763 13.1153 24.9025 13.1153C24.4287 13.1153 24.2522 12.9981 23.9005 12.7645C23.448 12.4641 22.8281 12.0526 21.7014 12.0526C20.5746 12.0526 19.9549 12.4641 19.5023 12.7645C19.1507 12.9981 18.9741 13.1153 18.5004 13.1153C18.0266 13.1153 17.8501 12.9981 17.4983 12.7645C17.0458 12.4641 16.426 12.0526 15.2992 12.0526C14.1724 12.0526 13.5526 12.4641 13.1001 12.7645C12.7483 12.9981 12.5717 13.1153 12.0979 13.1153C11.624 13.1153 11.4474 12.9981 11.0957 12.7645C10.9907 12.6949 10.8761 12.619 10.7483 12.5436C12.6012 10.3227 15.3882 8.90687 18.4999 8.90687ZM27.8799 22.7265C26.8934 22.7767 26.3262 23.1525 25.9046 23.4324C25.5529 23.666 25.3763 23.7832 24.9026 23.7832C24.4288 23.7832 24.2522 23.666 23.9006 23.4324C23.448 23.132 22.8282 22.7205 21.7015 22.7205C20.5747 22.7205 19.9549 23.132 19.5024 23.4324C19.1507 23.666 18.9742 23.7832 18.5005 23.7832C18.0267 23.7832 17.8501 23.666 17.4984 23.4324C17.0458 23.132 16.4261 22.7205 15.2993 22.7205C14.1724 22.7205 13.5527 23.132 13.1002 23.4324C12.7484 23.666 12.5718 23.7832 12.098 23.7832C11.6241 23.7832 11.4475 23.666 11.0957 23.4324C10.6741 23.1525 10.1068 22.7766 9.12005 22.7265C8.73201 21.7532 8.49172 20.7057 8.42593 19.6118C8.55332 19.5719 8.69941 19.5508 8.89657 19.5508C9.37045 19.5508 9.54705 19.668 9.8988 19.9016C10.3513 20.202 10.9712 20.6134 12.098 20.6134C13.2248 20.6134 13.8446 20.2019 14.2971 19.9015C14.6488 19.668 14.8254 19.5507 15.2993 19.5507C15.773 19.5507 15.9496 19.668 16.3013 19.9015C16.7538 20.2019 17.3736 20.6134 18.5004 20.6134C19.6271 20.6134 20.2469 20.2019 20.6994 19.9015C21.0511 19.668 21.2276 19.5507 21.7014 19.5507C22.1752 19.5507 22.3517 19.668 22.7035 19.9015C23.156 20.2019 23.7758 20.6134 24.9026 20.6134C26.0294 20.6134 26.6491 20.2019 27.1016 19.9015C27.4534 19.668 27.6299 19.5507 28.1037 19.5507C28.3007 19.5507 28.4467 19.5718 28.574 19.6117C28.5082 20.7056 28.2679 21.7531 27.8799 22.7265ZM28.1037 17.3865C26.9769 17.3865 26.3571 17.798 25.9046 18.0985C25.5529 18.332 25.3763 18.4492 24.9026 18.4492C24.4288 18.4492 24.2522 18.332 23.9006 18.0985C23.448 17.798 22.8282 17.3865 21.7015 17.3865C20.5747 17.3865 19.9549 17.798 19.5024 18.0985C19.1507 18.332 18.9742 18.4492 18.5005 18.4492C18.0267 18.4492 17.8501 18.332 17.4984 18.0985C17.0458 17.798 16.4261 17.3865 15.2993 17.3865C14.1724 17.3865 13.5527 17.798 13.1002 18.0985C12.7484 18.332 12.5718 18.4492 12.098 18.4492C11.6241 18.4492 11.4475 18.332 11.0957 18.0985C10.6432 17.798 10.0234 17.3866 8.89657 17.3866C8.76917 17.3866 8.64891 17.3927 8.53377 17.4026C8.70698 16.3182 9.0534 15.2909 9.54388 14.35C9.65338 14.405 9.76246 14.4771 9.89873 14.5676C10.3513 14.8681 10.9711 15.2795 12.0979 15.2795C13.2247 15.2795 13.8445 14.868 14.297 14.5675C14.6488 14.334 14.8253 14.2168 15.2992 14.2168C15.7729 14.2168 15.9495 14.334 16.3012 14.5675C16.7537 14.868 17.3736 15.2795 18.5003 15.2795C19.6271 15.2795 20.2468 14.868 20.6994 14.5675C21.051 14.334 21.2276 14.2168 21.7013 14.2168C22.1751 14.2168 22.3516 14.334 22.7034 14.5675C23.1559 14.868 23.7757 15.2795 24.9025 15.2795C26.0293 15.2795 26.649 14.868 27.1016 14.5676C27.2377 14.4772 27.3468 14.4051 27.4561 14.3502C27.9465 15.291 28.293 16.3182 28.4661 17.4025C28.3511 17.3926 28.231 17.3865 28.1037 17.3865ZM18.4999 29.0931C15.5564 29.0931 12.9034 27.8263 11.0568 25.8096C11.3482 25.8928 11.6894 25.9474 12.0978 25.9474C13.2247 25.9474 13.8444 25.5359 14.297 25.2354C14.6487 25.0019 14.8253 24.8847 15.2991 24.8847C15.7729 24.8847 15.9495 25.0019 16.3011 25.2354C16.7537 25.5359 17.3735 25.9474 18.5002 25.9474C19.627 25.9474 20.2468 25.5359 20.6993 25.2354C21.051 25.0019 21.2275 24.8847 21.7012 24.8847C22.175 24.8847 22.3516 25.0019 22.7033 25.2354C23.1559 25.5359 23.7756 25.9474 24.9024 25.9474C25.3106 25.9474 25.6515 25.893 25.9427 25.8098C24.0962 27.8263 21.4433 29.0931 18.4999 29.0931Z" fill="#155DA0"/>
<path d="M9.71415 5.23049C16.0089 1.21396 24.0478 1.99379 29.4159 6.83884L27.5849 6.70315L27.425 8.86143L33.186 9.28835L33.1856 3.51789L31.0214 3.51803L31.0216 5.38003C28.4092 2.97576 25.1414 1.36329 21.5848 0.760777C17.055 -0.00664645 12.426 0.93283 8.54996 3.40607C4.92789 5.71729 2.20916 9.23886 0.894628 13.322C-0.402446 17.3511 -0.280457 21.732 1.23816 25.6577L3.25656 24.877C0.465468 17.6615 3.18124 9.39901 9.71415 5.23049Z" fill="#155DA0"/>
<path d="M35.762 12.3422L33.7436 13.123C36.5348 20.3384 33.819 28.601 27.2862 32.7695C24.5601 34.5089 21.5083 35.3488 18.4866 35.3486C14.5315 35.3483 10.6302 33.9073 7.58665 31.1614L9.41532 31.2968L9.57525 29.1386L3.81424 28.7116L3.81453 34.4821L5.97872 34.482L5.97865 32.62C8.59105 35.0242 11.8588 36.6367 15.4155 37.2392C16.4458 37.4138 17.4805 37.5 18.5113 37.5C22.0114 37.4999 25.456 36.5046 28.4503 34.5939C32.0723 32.2827 34.7911 28.7611 36.1056 24.6779C37.4026 20.6489 37.2806 16.2679 35.762 12.3422Z" fill="#155DA0"/>
</g>
<defs>
<clipPath id="clip0">
<rect width="37" height="37" fill="white" transform="translate(0 0.5)"/>
</clipPath>
</defs>
</svg>
